<svg xmlns="http://www.w3.org/2000/svg" width="170" height="35" viewBox="0 0 280 42" fill="none">
<path fill-rule="evenodd" clip-rule="evenodd" d="M36.3831 2.25C35.5828 3.488 32.132 10.462 28.7131 17.75L22.4988 31H16.6572C13.4452 31 10.8166 30.753 10.8166 30.45C10.8166 30.148 11.5029 28.573 12.3412 26.95L13.8648 24H9.36091C4.94897 24 4.8031 24.105 2.28242 29.082C0.867717 31.877 -0.151346 35.365 0.0184975 36.832L0.326214 39.5L13.9227 39.777L27.5202 40.055L31.8293 30.543L36.1393 21.031L37.8387 23.766C39.4642 26.381 39.4493 26.598 37.4921 28.75C34.9484 31.547 36.3471 31.693 43.3587 29.365C48.6038 27.623 52.778 24.504 52.778 22.326C52.778 21.597 53.2276 21 53.7771 21C54.3266 21 54.7762 21.952 54.7762 23.117C54.7762 24.824 55.2108 25.117 57.0241 24.63C58.26 24.299 59.6097 24.021 60.0214 24.014C60.433 24.006 60.7707 22.266 60.7707 20.148V16.295L51.3933 15.635C46.235 15.273 41.2896 15.254 40.4034 15.595C38.3333 16.39 38.3743 15.74 40.6761 11.21C41.7132 9.17 43.2638 5.813 44.122 3.75L45.6825 0H41.7601C38.7899 0 37.4851 0.546 36.3831 2.25ZM104.039 13.783C98.9875 18.027 94.9762 21.95 95.1251 22.5C95.274 23.05 96.372 23.644 97.5649 23.82C99.4251 24.094 99.7349 24.785 99.7349 28.665C99.7349 36.539 105.667 42 114.222 42C122.446 42 127.863 37.127 129.144 28.578C129.649 25.206 130.302 24.176 132.406 23.431C134.983 22.518 134.842 22.337 125.268 14.25C119.897 9.713 114.99 6.015 114.362 6.033C113.735 6.052 109.089 9.539 104.039 13.783ZM123.713 8.345C123.713 9.695 126.783 13 128.038 13C128.407 13 128.708 11.65 128.708 10C128.708 7.467 128.32 7 126.211 7C124.784 7 123.713 7.577 123.713 8.345ZM152.176 23.023C150.039 27.41 147.981 31 147.604 31C147.226 31 144.984 27.619 142.622 23.486C140.26 19.354 138.034 16.316 137.674 16.736C137.315 17.156 136.24 21.775 135.286 27C134.331 32.225 133.311 37.513 133.018 38.75C132.576 40.628 132.903 41 135 41C137.257 41 137.582 40.492 138.2 36.001C138.577 33.252 139.206 30.805 139.595 30.564C139.986 30.322 141.772 32.797 143.566 36.062C145.359 39.328 147.014 42 147.244 42C147.474 42 149.106 39.188 150.871 35.75L154.081 29.5L154.979 34C156.344 40.841 156.439 41 159.149 41C160.54 41 161.678 40.851 161.678 40.669C161.678 39.549 156.716 15.701 156.423 15.406C156.224 15.208 154.313 18.635 152.176 23.023ZM209.933 27.587L203.77 40.5L206.367 40.832C207.968 41.037 209.302 40.559 209.848 39.582C211.068 37.401 221.153 37.333 221.985 39.5C222.677 41.306 227.646 41.529 227.549 39.75C227.511 39.063 224.919 33.139 221.788 26.587L216.095 14.674L209.933 27.587ZM230.615 28V41H233.566C236.501 41 236.519 40.964 236.813 34.519L237.109 28.038L244.102 34.987C247.949 38.808 251.432 41.95 251.845 41.967C252.258 41.985 252.594 36.15 252.594 29V16H250.097C247.689 16 247.599 16.233 247.599 22.5C247.599 26.075 247.262 28.998 246.85 28.996C246.438 28.995 242.953 25.857 239.107 22.024C235.26 18.191 231.776 15.042 231.364 15.027C230.952 15.012 230.615 20.85 230.615 28ZM71.7606 28V40H74.2033C76.4093 40 76.6761 39.539 76.9508 35.25L77.2555 30.5L82.0012 30.195L86.7468 29.89V34.945C86.7468 39.67 86.9096 40 89.2445 40H91.7422V28V16H89.2445C86.9506 16 86.7468 16.367 86.7468 20.5V25H81.7514H76.756V20.5C76.756 16.367 76.5522 16 74.2583 16H71.7606V28ZM165.674 28.5V41H173.737C181.526 41 181.787 40.924 181.48 38.75C181.207 36.83 180.464 36.455 176.414 36.195C172.129 35.92 171.669 35.653 171.669 33.445C171.669 31.259 172.092 31 175.665 31C179.262 31 179.661 30.75 179.661 28.5C179.661 26.25 179.262 26 175.665 26C172.068 26 171.669 25.75 171.669 23.5C171.669 21.204 172.035 21 176.165 21C180.294 21 180.66 20.796 180.66 18.5C180.66 16.056 180.494 16 173.167 16H165.674V28.5ZM186.655 28.5V41H194.148C201.474 41 201.641 40.944 201.641 38.5C201.641 36.167 201.309 36 196.646 36H191.65V26V16H189.153H186.655V28.5ZM258.589 28.5V41H264.633C274.534 41 279.57 36.786 279.57 28.5C279.57 20.214 274.534 16 264.633 16H258.589V28.5ZM120.044 19.043C124.835 22.815 124.504 30.049 119.35 34.228C112.786 39.55 102.992 31.804 105.741 23.465C107.836 17.111 114.84 14.946 120.044 19.043ZM109.181 20.455C106.147 23.491 105.996 27.799 108.8 31.365C111.75 35.12 113.541 34.73 113.912 30.25C114.206 26.688 114.413 26.484 118.05 26.185C120.991 25.943 121.744 25.518 121.297 24.353C120.977 23.519 120.716 22.475 120.716 22.032C120.716 21.131 114.55 18 112.776 18C112.147 18 110.53 19.105 109.181 20.455ZM47.0523 20.25C47.7586 22.275 46.7046 24 44.7614 24C43.7673 24 42.7572 23.438 42.5184 22.75C41.8121 20.725 42.8661 19 44.8093 19C45.8034 19 46.8135 19.563 47.0523 20.25ZM271.463 22.75C272.621 23.712 273.846 25.933 274.184 27.684C274.98 31.815 271.177 36 266.626 36H263.584V28.5V21H266.471C268.058 21 270.305 21.788 271.463 22.75ZM217.529 29.149C219.098 33.656 218.963 34 215.628 34C212.232 34 212.186 33.877 213.831 29.321C215.327 25.18 216.134 25.143 217.529 29.149Z" fill="white"/>
</svg>