<svg xmlns="http://www.w3.org/2000/svg" width="42" height="42" viewBox="0 0 61 42" fill="none">
  <path fill-rule="evenodd" clip-rule="evenodd" d="M36.3831 2.25C35.5828 3.488 32.132 10.462 28.7131 17.75L22.4988 31H16.6572C13.4452 31 10.8166 30.753 10.8166 30.45C10.8166 30.148 11.5029 28.573 12.3412 26.95L13.8648 24H9.36091C4.94897 24 4.8031 24.105 2.28242 29.082C0.867717 31.877 -0.151346 35.365 0.0184975 36.832L0.326214 39.5L13.9227 39.777L27.5202 40.055L31.8293 30.543L36.1393 21.031L37.8387 23.766C39.4642 26.381 39.4493 26.598 37.4921 28.75C34.9484 31.547 36.3471 31.693 43.3587 29.365C48.6038 27.623 52.778 24.504 52.778 22.326C52.778 21.597 53.2276 21 53.7771 21C54.3266 21 54.7762 21.952 54.7762 23.117C54.7762 24.824 55.2108 25.117 57.0241 24.63C58.26 24.299 59.6097 24.021 60.0214 24.014C60.433 24.006 60.7707 22.266 60.7707 20.148V16.295L51.3933 15.635C46.235 15.273 41.2896 15.254 40.4034 15.595C38.3333 16.39 38.3743 15.74 40.6761 11.21C41.7132 9.17 43.2638 5.813 44.122 3.75L45.6825 0H41.7601C38.7899 0 37.4851 0.546 36.3831 2.25Z" fill="black"/>
</svg>
